<?xml version="1.0" standalone="no"?>
<!DOCTYPE svg PUBLIC "-//W3C//DTD SVG 20010904//EN"
 "http://www.w3.org/TR/2001/REC-SVG-20010904/DTD/svg10.dtd">
<svg version="1.0" xmlns="http://www.w3.org/2000/svg"
 width="700.000000pt" height="700.000000pt" viewBox="0 0 700.000000 700.000000"
 preserveAspectRatio="xMidYMid meet">
<metadata>
Created by potrace 1.11, written by Peter Selinger 2001-2013
</metadata>
<g transform="translate(0.000000,700.000000) scale(0.100000,-0.100000)"
fill="#000000" stroke="none">
<path d="M1643 6367 c-3 -5 -7 -3708 -3 -4173 l0 -61 422 1 423 1 0 2118 c0
1164 -2 2118 -5 2118 -25 6 -833 2 -837 -4z"/>
<path d="M4329 4768 c-46 -50 -89 -96 -94 -102 -6 -6 -64 -69 -130 -141 -65
-71 -136 -148 -156 -170 -20 -22 -52 -56 -69 -75 -18 -19 -51 -55 -74 -80 -23
-25 -93 -101 -156 -170 -63 -69 -119 -130 -125 -136 -28 -30 -202 -219 -215
-234 -15 -17 -166 -182 -225 -245 -16 -18 -48 -52 -70 -76 -48 -53 -122 -133
-270 -294 -60 -65 -135 -146 -165 -179 -30 -33 -62 -67 -71 -76 -15 -16 -12
-21 35 -72 28 -30 94 -102 146 -159 52 -56 116 -126 142 -154 26 -28 55 -60
65 -71 10 -12 64 -70 119 -130 56 -60 120 -129 142 -154 22 -25 55 -61 73 -81
19 -20 68 -74 110 -120 43 -46 94 -102 115 -125 22 -22 82 -87 134 -144 52
-57 100 -108 105 -114 6 -6 55 -61 110 -121 55 -61 107 -117 115 -125 8 -8 60
-64 115 -125 55 -60 102 -112 105 -115 3 -3 50 -54 105 -115 55 -60 123 -134
151 -164 l52 -54 571 0 c314 0 573 2 575 4 3 2 -26 36 -62 74 -37 39 -110 118
-162 175 -52 57 -126 138 -165 179 -62 66 -137 148 -200 217 -11 12 -47 51
-80 87 -33 35 -78 84 -100 108 -98 107 -183 198 -234 254 -31 33 -103 112
-161 175 -58 63 -116 127 -130 141 -14 14 -65 70 -115 124 -49 54 -101 110
-115 125 -14 15 -65 71 -115 125 -49 54 -122 132 -161 174 -150 161 -152 164
-135 182 9 8 61 64 116 124 55 60 116 125 135 146 19 20 57 61 84 90 27 30 92
100 144 157 53 57 103 112 113 124 10 11 67 72 126 136 128 137 102 109 242
262 63 69 122 132 130 141 9 9 39 41 66 71 28 30 98 106 156 169 58 63 134
145 170 184 35 38 71 77 79 86 17 17 181 196 219 238 13 14 45 49 72 78 27 28
49 54 49 57 0 3 -258 6 -573 6 l-574 0 -84 -92z"/>
<path d="M1930 1914 c-229 -49 -425 -240 -485 -474 -59 -227 21 -478 202 -639
62 -55 191 -122 269 -141 141 -32 303 -14 429 49 78 39 93 48 165 114 259 235
266 662 15 912 -127 126 -261 185 -435 190 -54 2 -123 -3 -160 -11z m215 -359
c101 -27 188 -134 198 -245 12 -126 -78 -259 -197 -291 -144 -39 -285 30 -340
165 -45 110 -17 227 74 309 75 68 163 88 265 62z"/>
</g>
</svg>
