<svg width="44" height="70" viewBox="0 0 44 70" fill="none" xmlns="http://www.w3.org/2000/svg">
<path d="M37.4 0H6.6C2.95625 0 0 2.93945 0 6.5625V63.4375C0 67.0605 2.95625 70 6.6 70H37.4C41.0438 70 44 67.0605 44 63.4375V6.5625C44 2.93945 41.0438 0 37.4 0ZM22 65.625C19.5662 65.625 17.6 63.6699 17.6 61.25C17.6 58.8301 19.5662 56.875 22 56.875C24.4338 56.875 26.4 58.8301 26.4 61.25C26.4 63.6699 24.4338 65.625 22 65.625ZM37.4 50.8594C37.4 51.7617 36.6575 52.5 35.75 52.5H8.25C7.3425 52.5 6.6 51.7617 6.6 50.8594V8.20312C6.6 7.30078 7.3425 6.5625 8.25 6.5625H35.75C36.6575 6.5625 37.4 7.30078 37.4 8.20312V50.8594Z" fill="white"/>
</svg>
