<svg width="46" height="46" viewBox="0 0 46 46" fill="none" xmlns="http://www.w3.org/2000/svg">
<path d="M22.6772 0C10.2175 0 0.117188 10.1003 0.117188 22.56C0.117188 35.0197 10.2175 45.12 22.6772 45.12C35.1369 45.12 45.2372 35.0197 45.2372 22.56C45.2372 10.1003 35.1369 0 22.6772 0ZM17.1547 31.9106H12.5863V17.209H17.1547V31.9106ZM14.8423 15.4042C13.3994 15.4042 12.4664 14.382 12.4664 13.1177C12.4664 11.8275 13.4276 10.8358 14.901 10.8358C16.3745 10.8358 17.2769 11.8275 17.3051 13.1177C17.3051 14.382 16.3745 15.4042 14.8423 15.4042ZM33.8397 31.9106H29.2713V23.7632C29.2713 21.8668 28.6086 20.5789 26.9565 20.5789C25.6946 20.5789 24.9449 21.4508 24.6136 22.2898C24.4914 22.5882 24.4608 23.0112 24.4608 23.4319V31.9083H19.8901V21.8973C19.8901 20.062 19.8313 18.5274 19.7702 17.2067H23.7394L23.9485 19.2488H24.0402C24.6418 18.29 26.1152 16.8753 28.5804 16.8753C31.586 16.8753 33.8397 18.8893 33.8397 23.218V31.9106V31.9106Z" fill="#545059"/>
</svg>
