<svg width="47" height="47" viewBox="0 0 47 47" fill="none" xmlns="http://www.w3.org/2000/svg">
<path d="M23.4999 0.939453C11.0402 0.939453 0.939941 11.0398 0.939941 23.4995C0.939941 35.9592 11.0402 46.0595 23.4999 46.0595C35.9596 46.0595 46.0599 35.9592 46.0599 23.4995C46.0599 11.0398 35.9596 0.939453 23.4999 0.939453ZM17.9774 32.8501H13.409V18.1485H17.9774V32.8501ZM15.665 16.3437C14.2221 16.3437 13.2892 15.3215 13.2892 14.0572C13.2892 12.767 14.2503 11.7753 15.7238 11.7753C17.1972 11.7753 18.0996 12.767 18.1278 14.0572C18.1278 15.3215 17.1972 16.3437 15.665 16.3437ZM34.6624 32.8501H30.094V24.7027C30.094 22.8062 29.4313 21.5184 27.7793 21.5184C26.5173 21.5184 25.7677 22.3903 25.4363 23.2292C25.3141 23.5277 25.2836 23.9507 25.2836 24.3713V32.8478H20.7128V22.8368C20.7128 21.0014 20.6541 19.4669 20.593 18.1462H24.5621L24.7713 20.1883H24.8629C25.4645 19.2295 26.938 17.8148 29.4031 17.8148C32.4088 17.8148 34.6624 19.8288 34.6624 24.1575V32.8501Z" fill="#8359FE"/>
</svg>
