<svg width="44" height="44" viewBox="0 0 44 44" fill="none" xmlns="http://www.w3.org/2000/svg">
<path d="M21.58 0C9.66169 0 0 9.66169 0 21.58C0 33.4983 9.66169 43.16 21.58 43.16C33.4983 43.16 43.16 33.4983 43.16 21.58C43.16 9.66169 33.4983 0 21.58 0ZM13.8247 8.57194C14.2693 8.54572 14.6712 8.81147 14.9759 9.28318L17.9263 14.8784C18.2369 15.5414 18.0604 16.2513 17.597 16.725L16.2456 18.0764C16.1622 18.1907 16.1073 18.3194 16.106 18.461C16.6242 20.467 18.1963 22.3174 19.5833 23.5899C20.9702 24.8624 22.4609 26.5853 24.396 26.9934C24.6352 27.0601 24.9282 27.0841 25.0994 26.925L26.6694 25.326C27.2114 24.9152 27.9954 24.7161 28.574 25.052H28.6003L33.9242 28.1947C34.7056 28.6845 34.7866 29.6314 34.2271 30.2073L30.5603 33.8452C30.0188 34.4005 29.2993 34.5872 28.6004 34.5881C25.5091 34.4955 22.5883 32.9782 20.1892 31.419C16.2512 28.5542 12.6389 25.0009 10.3712 20.7081C9.50142 18.9079 8.47972 16.6111 8.57722 14.6019C8.58593 13.846 8.79043 13.1055 9.32274 12.6183L12.9896 8.95135C13.2753 8.70829 13.5579 8.58769 13.8247 8.57194Z" fill="#8359FE"/>
</svg>
