<svg width="69" height="70" viewBox="0 0 69 70" fill="none" xmlns="http://www.w3.org/2000/svg">
<path d="M44.1895 7.59336C48.3854 11.7944 51.0116 17.3088 51.6287 23.2143C52.2458 29.1197 50.8164 35.0579 47.5797 40.0357C48.1447 40.5065 48.6155 41.0245 49.2747 41.4953C50.2164 42.2487 51.4877 43.1904 53.0886 44.2734C54.6895 45.4035 55.7254 46.1098 56.1963 46.4865C58.1739 47.9461 59.6335 49.1704 60.6223 50.1592C62.129 51.6659 63.4474 53.2198 64.5774 54.8678C65.7546 56.5158 66.6492 58.1167 67.3555 59.7648C68.0147 61.4128 68.3443 62.9666 68.203 64.4734C68.1088 65.9801 67.5438 67.2514 66.5079 68.2873C65.4721 69.3232 64.2008 69.8883 62.694 69.9824C61.2344 70.0766 59.6335 69.7941 58.0326 69.0878C56.3846 68.4286 54.7366 67.4869 53.1357 66.3097C51.4877 65.1796 49.9339 63.8612 48.4272 62.3545C47.4384 61.3657 46.2142 59.906 44.8016 57.9755C44.3308 57.3634 43.6245 56.3275 42.5886 54.8678C41.5528 53.361 40.7052 52.1839 39.9519 51.1951C39.1985 50.2534 38.5864 49.5471 37.8801 48.8408C32.9929 51.3999 27.4164 52.3323 21.9625 51.5023C16.5086 50.6724 11.462 48.1234 7.55719 44.2263C-2.51906 34.1028 -2.51906 17.6698 7.55719 7.59336C9.96146 5.18616 12.8167 3.2765 15.9595 1.97357C19.1023 0.67064 22.4712 0 25.8734 0C29.2756 0 32.6444 0.67064 35.7872 1.97357C38.9301 3.2765 41.7852 5.18616 44.1895 7.59336ZM37.5505 37.5401C40.6265 34.4416 42.3527 30.2525 42.3527 25.8863C42.3527 21.5201 40.6265 17.3311 37.5505 14.2325C36.0218 12.6992 34.2055 11.4826 32.2057 10.6526C30.206 9.82249 28.0621 9.39521 25.8969 9.39521C23.7317 9.39521 21.5878 9.82249 19.5881 10.6526C17.5883 11.4826 15.772 12.6992 14.2433 14.2325C12.71 15.7613 11.4935 17.5776 10.6634 19.5774C9.83336 21.5772 9.40609 23.7211 9.40609 25.8863C9.40609 28.0515 9.83336 30.1955 10.6634 32.1952C11.4935 34.195 12.71 36.0113 14.2433 37.5401C15.772 39.0734 17.5883 40.29 19.5881 41.1201C21.5878 41.9501 23.7317 42.3774 25.8969 42.3774C28.0621 42.3774 30.206 41.9501 32.2057 41.1201C34.2055 40.29 36.0218 39.0734 37.5505 37.5401Z" fill="white"/>
</svg>
